<?xml version="1.0" standalone="no"?>
<!DOCTYPE svg PUBLIC "-//W3C//DTD SVG 1.1//EN" "http://www.w3.org/Graphics/SVG/1.1/DTD/svg11.dtd" >
<!--
2013-9-30: Created.
-->
<svg>
<metadata>
Created by iconfont
</metadata>
<defs>

<font id="iconfont" horiz-adv-x="1024" >
  <font-face
    font-family="iconfont"
    font-weight="500"
    font-stretch="normal"
    units-per-em="1024"
    ascent="896"
    descent="-128"
  />
    <missing-glyph />
    
    <glyph glyph-name="x" unicode="x" horiz-adv-x="1001"
d="M281 543q-27 -1 -53 -1h-83q-18 0 -36.5 -6t-32.5 -18.5t-23 -32t-9 -45.5v-76h912v41q0 16 -0.5 30t-0.5 18q0 13 -5 29t-17 29.5t-31.5 22.5t-49.5 9h-133v-97h-438v97zM955 310v-52q0 -23 0.5 -52t0.5 -58t-10.5 -47.5t-26 -30t-33 -16t-31.5 -4.5q-14 -1 -29.5 -0.5
t-29.5 0.5h-32l-45 128h-439l-44 -128h-29h-34q-20 0 -45 1q-25 0 -41 9.5t-25.5 23t-13.5 29.5t-4 30v167h911zM163 247q-12 0 -21 -8.5t-9 -21.5t9 -21.5t21 -8.5q13 0 22 8.5t9 21.5t-9 21.5t-22 8.5zM316 123q-8 -26 -14 -48q-5 -19 -10.5 -37t-7.5 -25t-3 -15t1 -14.5
t9.5 -10.5t21.5 -4h37h67h81h80h64h36q23 0 34 12t2 38q-5 13 -9.5 30.5t-9.5 34.5q-5 19 -11 39h-368zM336 498v228q0 11 2.5 23t10 21.5t20.5 15.5t34 6h188q31 0 51.5 -14.5t20.5 -52.5v-227h-327z" />
    

    
    <glyph glyph-name="tianjiayonghu" unicode="&#58886;" d="M762.88-41.984q-43.008 0-81.408 16.384t-67.072 45.056-45.056 67.072-16.384 81.408 16.384 81.408 45.056 66.56 67.072 44.544 81.408 16.384 81.408-16.384 66.56-44.544 44.544-66.56 16.384-81.408-16.384-81.408-44.544-67.072-66.56-45.056-81.408-16.384zM866.304 201.728l-75.776 0 0 70.656q0 14.336-9.216 24.576t-23.552 10.24-22.528-10.24-8.192-24.576l0-70.656-66.56 0q-14.336 0-24.576-10.24t-10.24-24.576 10.24-21.504 24.576-7.168l66.56 0 0-72.704q0-14.336 8.192-24.576t22.528-10.24 23.552 10.24 9.216 24.576l0 72.704 75.776 0 0-2.048q14.336 0 24.576 8.192t10.24 22.528-10.24 24.576-24.576 10.24zM613.376 456.704q-4.096-16.384-8.192-29.696-4.096-11.264-10.24-23.04t-13.312-17.92q-9.216-7.168-12.8-15.36t-6.144-16.896-5.632-17.92-10.24-18.432q-23.552-30.72-35.328-59.392t-16.384-55.296-2.56-52.736 8.192-50.688q4.096-18.432 12.288-38.4t24.064-40.96 40.448-40.96 61.44-38.4q-24.576-5.12-57.344-9.216-27.648-3.072-68.096-5.632t-92.672-2.56q-26.624 0-61.952 2.048t-72.704 5.12-73.728 7.168-66.56 8.704-51.2 9.728-26.112 9.216q-9.216 8.192-14.336 45.568t3.072 97.792q5.12 33.792 27.136 51.712t51.712 28.16 61.952 18.944 56.832 24.064q19.456 12.288 29.696 23.04t14.336 22.016 4.096 23.552-1.024 26.624q-2.048 21.504-14.848 33.792t-27.136 24.576q-8.192 6.144-14.336 18.432t-10.24 23.552q-5.12 13.312-8.192 29.696-7.168 2.048-13.312 6.144-5.12 4.096-11.264 12.288t-11.264 24.576q-5.12 15.36-3.584 28.672t5.632 22.528q4.096 11.264 11.264 19.456 0 34.816 4.096 69.632 4.096 29.696 12.8 63.488t28.16 60.416q18.432 25.6 39.424 41.984t43.52 25.6 45.056 12.8 43.008 3.584q26.624 0 51.2-6.144t45.568-16.384 37.376-23.04 26.624-26.112q23.552-29.696 34.304-65.536t15.872-67.584q5.12-36.864 4.096-73.728 6.144-5.12 10.24-12.288 4.096-6.144 6.144-16.384t0-25.6q-2.048-19.456-8.192-30.72t-13.312-17.408q-8.192-7.168-17.408-10.24z"  horiz-adv-x="1024" />

    
    <glyph glyph-name="test" unicode="&#58883;" d="M512.290667 812 670.418667 491.6 1024 440.221333 768.146667 190.824 828.544-161.328 512.290667 4.936 196.037333-161.328 256.434667 190.824 0.581333 440.221333 354.162667 491.6Z"  horiz-adv-x="1024" />

    
    <glyph glyph-name="llmainpageback" unicode="&#58884;" d="M480.591151 595.807123M475.940225 636.767M369.112174 297.136789l381.074112 379.929032c13.155624 13.132088 13.155624 34.387181 0 47.494711l-11.905144 11.879562c-13.179161 13.107529-34.485419 13.107529-47.642067 0l-416.844803-415.544181c-13.131065-13.131065-13.131065-34.388205 0-47.51927l416.844803-415.544181c13.155624-13.106506 34.511002-13.106506 47.642067 0l11.905144 11.879562c13.155624 13.107529 13.155624 34.362622 0 47.51927L369.112174 297.136789z"  horiz-adv-x="1024" />

    
    <glyph glyph-name="tongxunlu" unicode="&#59070;" d="M762.818489 104.840158l-169.19447 65.932642c0 0-32.253588 12.526291-44.790112 24.848944-8.054443 7.91732-7.477298 26.598798-0.347924 50.465368 7.129374 23.865547 93.856621 120.844276 93.856621 208.934566 0 136.066979-89.436962 246.375294-199.76165 246.375294S242.820328 591.088658 242.820328 455.021679c0-84.375689 77.281107-184.961572 86.826508-203.246007 9.5454-18.284435 7.220449-46.140876-0.311085-54.586223-11.314697-12.687974-52.658314-25.393343-52.658314-25.393343l-152.525835-67.980277c-35.636638-12.795421-63.549362-46.402843-63.549362-84.323501l0-17.97949c0-41.379433 33.606399-66.700121 74.9142-66.700121l255.804037 0 87.678922 0L751.455697-65.187283c41.307801 0 74.9142 25.321712 74.9142 66.700121l0 17.97949C826.367851 57.414009 798.455127 92.045761 762.818489 104.840158zM733.545792 389.574085c-17.599843 0-31.883151 8.940626-31.883151 27.821649 0 18.879999 14.283308 27.819602 31.883151 27.819602l224.031403 0c17.59575 0 30.853705-8.940626 30.853705-27.819602 0-18.879999-15.305591-27.821649-32.901341-27.821649L733.545792 389.574085zM781.050736 262.095715c-17.599843 0-31.883151 8.940626-31.883151 27.820626s14.283308 27.819602 31.883151 27.819602l176.956248 0c17.59575 0 29.830399-8.940626 29.830399-27.819602 0-18.879999-13.258978-27.820626-30.854728-27.820626L781.050736 262.095715zM839.896982 142.016873c-17.599843 0-31.883151 8.940626-31.883151 27.820626s14.283308 27.819602 31.883151 27.819602L958.521706 197.6571c17.59575 0 30.832216-8.940626 30.832216-27.819602 0-18.879999-14.259772-27.820626-31.855522-27.820626L839.896982 142.016873z"  horiz-adv-x="1024" />

    
    <glyph glyph-name="wechat1" unicode="&#58913;" d="M226.320909 589.228222c0 22.629895 18.347673 40.966588 40.966588 40.966588s40.966588-18.347673 40.966588-40.966588c0-22.629895-18.347673-40.966588-40.966588-40.966588S226.320909 566.598327 226.320909 589.228222zM481.266824 539.225048c22.629895 0 40.966588 18.347673 40.966588 40.966588 0 22.629895-18.347673 40.966588-40.966588 40.966588s-40.966588-18.347673-40.966588-40.966588C440.289256 557.561741 458.636929 539.225048 481.266824 539.225048zM840.731889 397.538409c0 18.446494-14.954836 33.39035-33.39035 33.39035-18.446494 0-33.39035-14.954836-33.39035-33.39035 0-18.446494 14.954836-33.39035 33.39035-33.39035S840.731889 379.102895 840.731889 397.538409zM666.346644 390.181771c0 18.446494-14.954836 33.39035-33.39035 33.39035-18.446494 0-33.39035-14.954836-33.39035-33.39035 0-18.446494 14.954836-33.39035 33.39035-33.39035C651.402788 356.791422 666.346644 371.735278 666.346644 390.181771zM844.904311-11.951791l17.897491 2.250911-9.947931 14.801115c-19.566459 29.075188-33.587991 60.598928-41.746172 93.835557 121.197855 29.349689 204.87686 118.815183 204.87686 220.63324 0 127.171006-129.795239 230.625091-289.346429 230.625091s-289.346429-103.454085-289.346429-230.625091c0-122.559382 118.782243-222.807291 271.503839-230.163929 63.278061-94.066138 117.717178-101.488655 133.078276-101.488655C843.861205-12.083551 844.904311-11.951791 844.904311-11.951791zM994.024448 319.569033c0-94.329659-81.537894-177.22908-198.288827-201.593824l-10.727514-2.239931 2.206991-10.727514c6.544113-31.732361 17.952391-62.070255 34.016213-90.5086-21.433069 8.125241-57.08531 30.469655-97.217414 91.672486l-3.118336 4.765344-5.698649 0.186661c-143.520309 4.721424-255.95608 96.284109-255.95608 208.445379 0 115.060004 119.946129 208.66498 267.386318 208.66498S994.024448 434.629037 994.024448 319.569033zM398.070941 221.758696c6.774694 0.494103 13.483508 1.152906 20.148402 1.92151l14.801115 1.701909-6.00609 13.637229c-11.452198 25.978812-17.249668 53.08857-17.249668 80.560669 0 127.390607 127.061205 235.763757 289.269569 246.732833l14.856015 0.999185-5.336307 13.900751c-45.797813 118.957924-183.498692 198.88175-342.6546 198.88175-197.344542 0-357.894917-125.502037-357.894917-279.771821 0-128.927815 109.646837-239.024834 268.100021-270.834055-10.068711-40.900708-27.318379-79.649324-51.353721-115.356466l-9.82715-14.866995 17.75475-2.185031c0 0 1.174866-0.142741 3.425777-0.153721 0.01098 0 0.01098 0 0.01098 0C254.737294 96.915462 320.848209 106.017928 398.070941 221.758696zM682.256745 586.91143c-168.928158-17.370448-294.452155-130.234441-294.452155-267.342398 0-25.66039 4.545743-51.013339 13.516449-75.531804-3.326957-0.285481-6.664894-0.527043-10.035771-0.713704l-5.522968-0.318422-3.030495-4.633584c-54.054814-82.65786-100.939653-108.28531-126.929445-116.11409 20.906026 35.553421 35.773022 73.665194 44.282565 113.632597l2.371692 11.144757-11.221617 1.95445c-151.393009 26.428994-261.281407 132.133991-261.281407 251.333476 0 142.158782 150.701265 257.811709 335.934806 257.811709C507.443277 758.12344 634.954664 688.411066 682.256745 586.91143z"  horiz-adv-x="1024" />

    
    <glyph glyph-name="custom-wechat" unicode="&#58946;" d="M498.816 550.944c26.336 0 43.936 17.632 43.936 43.904 0 26.56-17.568 43.744-43.936 43.744s-52.832-17.184-52.832-43.744c0.032-26.272 26.496-43.904 52.832-43.904zM253.088 638.592c-26.336 0-52.96-17.184-52.96-43.744 0-26.272 26.624-43.904 52.96-43.904 26.24 0 43.808 17.632 43.808 43.904-0.032 26.56-17.568 43.744-43.808 43.744zM1024 269.888c0 138.88-128.832 257.216-286.976 269.536 0.224 1.728 0.32 3.52-0.064 5.312-31.712 147.84-190.688 259.296-369.824 259.296-202.432 0-367.136-141.152-367.136-314.656 0-93.088 47.52-176.96 137.568-243.104l-31.392-94.368c-2.016-6.144-0.192-12.896 4.704-17.152 2.976-2.56 6.72-3.904 10.496-3.904 2.432 0 4.896 0.576 7.168 1.696l117.856 58.976 14.528-2.944c36.288-7.456 67.616-13.92 106.208-13.92 11.36 0 22.88 0.512 34.176 1.472 4.576 0.384 8.448 2.688 11.072 6.016 42.496-106.336 159.616-183.104 297.44-183.104 35.296 0 71.040 8.512 103.104 16.544l90.848-49.664c2.4-1.312 5.056-1.984 7.68-1.984 3.584 0 7.168 1.216 10.048 3.552 5.056 4.096 7.136 10.848 5.248 17.024l-23.2 77.152c77.792 61.472 120.448 135.008 120.448 208.224zM398.592 208.032c-10.4-0.896-20.96-1.344-31.424-1.344-35.328 0-65.216 6.112-99.776 13.248l-20.096 4.064c-3.456 0.736-7.104 0.256-10.272-1.376l-88.288-44.192 22.944 68.928c2.24 6.752-0.224 14.112-6.016 18.176-88.704 61.824-133.664 137.152-133.664 223.84 0 155.84 150.336 282.656 335.136 282.656 163.36 0 308-99.392 337.856-231.584-171.296-2.24-309.888-122.656-309.888-270.56 0-21.504 3.264-42.336 8.768-62.432-1.664 0.416-3.424 0.736-5.28 0.576zM875.456 80.448c-5.344-4.032-7.616-10.976-5.696-17.376l15.136-50.336-62.112 33.984c-2.368 1.312-5.024 1.984-7.68 1.984-1.312 0-2.624-0.16-3.904-0.512-33.312-8.416-67.776-17.088-101.344-17.088-155.904 0-282.72 107.136-282.72 238.816 0 131.68 126.816 238.784 282.72 238.784 152.928 0 282.144-109.344 282.144-238.784 0-65.664-41.376-132.96-116.544-189.472zM612.992 384.032c-17.568 0-35.136-17.696-35.136-35.232 0-17.664 17.568-35.104 35.136-35.104 26.4 0 43.84 17.44 43.84 35.104 0 17.568-17.44 35.232-43.84 35.232zM806.016 384.032c-17.312 0-34.88-17.696-34.88-35.232 0-17.664 17.568-35.104 34.88-35.104 26.304 0 44.064 17.44 44.064 35.104 0 17.568-17.728 35.232-44.064 35.232z"  horiz-adv-x="1024" />

    
    <glyph glyph-name="wechat3" unicode="&#59019;" d="M692.313 548.73c11.13 0 22.261 0 35.617-2.226-31.165 144.696-186.991 253.774-365.078 253.774-198.122 0-360.626-135.791-360.626-307.2 0-100.174 53.426-180.313 144.696-242.643l-35.617-111.304 126.887 62.33c44.522-8.904 82.365-17.809 126.887-17.809 11.13 0 22.261 0 33.391 2.226-6.678 24.487-11.13 48.974-11.13 75.687-2.226 158.052 133.565 287.165 304.974 287.165v0zM498.643 646.678c26.713 0 44.522-17.809 44.522-44.522s-17.809-44.522-44.522-44.522c-26.713 0-53.426 17.809-53.426 44.522 0 26.713 26.713 44.522 53.426 44.522v0zM244.87 555.409c-26.713 0-53.426 17.809-53.426 44.522s26.713 44.522 53.426 44.522c26.713 0 44.522-17.809 44.522-44.522 2.226-26.713-15.583-44.522-44.522-44.522v0zM1021.774 266.017c0 144.696-144.696 262.678-307.2 262.678-171.409 0-307.2-117.983-307.2-262.678 0-144.696 135.791-262.678 307.2-262.678 35.617 0 71.235 8.904 109.078 17.809l97.948-53.426-26.713 91.27c73.461 53.426 126.887 126.887 126.887 207.026v0zM616.626 312.765c-17.809 0-35.617 17.809-35.617 35.617 0 17.809 17.809 35.617 35.617 35.617 26.713 0 44.522-17.809 44.522-35.617 0-17.809-17.809-35.617-44.522-35.617v0zM814.748 312.765c-17.809 0-35.617 17.809-35.617 35.617 0 17.809 17.809 35.617 35.617 35.617 26.713 0 44.522-17.809 44.522-35.617-0-17.809-17.809-35.617-44.522-35.617v0zM814.748 312.765z"  horiz-adv-x="1024" />

    
    <glyph glyph-name="gengduo" unicode="&#58885;" d="M861.896018 286.039921c-53.074799 0-96.107895 42.915415-96.107895 95.844905 0 52.925397 43.007513 95.842859 96.107895 95.842859 53.103452 0 96.109941-42.917462 96.109941-95.842859C958.00596 328.954313 914.972864 286.039921 861.896018 286.039921L861.896018 286.039921zM511.7585 286.039921c-53.076846 0-96.107895 42.915415-96.107895 95.844905 0 52.925397 43.031049 95.842859 96.107895 95.842859s96.109941-42.917462 96.109941-95.842859C607.868441 328.954313 564.835346 286.039921 511.7585 286.039921L511.7585 286.039921zM161.617911 286.039921c-53.074799 0-96.109941 42.915415-96.109941 95.844905 0 52.925397 43.035142 95.842859 96.109941 95.842859 53.076846 0 96.109941-42.917462 96.109941-95.842859C257.728876 328.954313 214.721363 286.039921 161.617911 286.039921L161.617911 286.039921zM161.617911 286.039921"  horiz-adv-x="1024" />

    
    <glyph glyph-name="iconfontnan" unicode="&#58895;" d="M842.946179 143.157723c2.469339-8.643867 4.631674-19.60757 6.48598-32.881898 1.850213-13.281491 2.777367-26.709315 2.777367-40.296775 0-13.586436-1.080656-26.400277-3.24299-38.440497-2.161311-12.044314-5.400208-21.149693-9.724877-27.327392-3.089488-4.324492-10.965175-8.489348-23.619898-12.506848-12.660863-4.01136-28.563693-7.715729-47.71156-11.112082-19.140703-3.396353-40.449881-6.639211-63.916277-9.729595-23.467419-3.084245-46.932792-5.713119-70.403281-7.869225-23.468443-2.162246-46.318783-3.709485-68.549998-4.631484-22.231215-0.927115-41.685063-1.39272-58.35745-1.39272-16.678528 0-35.973757 0.6191-57.896944 1.855254-21.925234 1.234107-44.46857 2.77623-67.627961 4.630461-23.158368 1.855254-46.163234 4.012384-69.009481 6.485715-22.852387 2.470261-43.694918 5.247514-62.529641 8.335852-18.839839 3.085268-34.893101 6.02011-48.17309 8.798387-13.275895 2.781346-21.458587 5.711072-24.547052 8.801457-5.55985 4.325515-9.883496 18.064424-12.966844 41.222867-3.089488 23.158443-1.85533 53.263088 3.703497 90.315982 3.089488 20.996197 11.579184 37.052894 25.475228 48.164976 13.895021 11.117199 29.952376 19.914562 48.172066 26.4013 18.215597 6.485715 37.361417 12.198833 57.43132 17.137309 20.069903 4.938476 37.520036 12.347213 52.33914 22.230304 11.732686 7.408737 20.842531 14.515598 27.328512 21.304212 6.487004 6.79373 11.117654 13.586436 13.896044 20.380166 2.777367 6.79373 4.170144 13.895475 4.170144 21.303188 0 7.413853-0.312121 15.749706-0.92613 25.012673-1.236205 13.58746-5.714376 24.084535-13.435538 31.494295-7.721162 7.41283-16.210858 15.128559-25.475228 23.156396-4.938678 3.704368-9.108822 9.109472-12.506337 16.210193-3.396492 7.100722-6.635389 14.361079-9.724877 21.768793-3.089488 8.02886-5.866855 16.983813-8.33517 26.861788-1.236205 1.235131-3.090511 3.396353-5.55985 6.485715-1.854307 3.084245-4.016641 7.255241-6.48598 12.505825-2.469339 5.246491-5.246706 12.81384-8.336194 22.691815-3.089488 9.883091-5.09218 18.680455-6.020357 26.4013-0.927153 7.719822-0.773651 14.354939 0.46153 19.914562 0.619126 6.79373 2.163358 12.660344 4.631674 17.59882 0 21.615297 1.235181 43.230594 3.709637 64.841797 2.470362 17.910928 6.480864 37.365003 12.040714 58.361199 5.55985 20.996197 14.511076 39.829124 26.862888 56.505945 11.118677 15.436574 23.158368 28.249391 36.127259 38.440497 12.971961 10.190083 26.401358 18.059308 40.296379 23.61893 13.896044 5.558599 27.944567 9.416464 42.151709 11.57871 14.203049 2.161223 27.791065 3.242857 40.759956 3.242857 14.202025-1.234107 25.781209-2.934842 34.737552-5.091972 8.951226-2.163269 16.211881-4.790096 21.769685-7.874341 5.554734-3.089361 10.339909-6.79373 14.356551-11.118222 4.011525-4.323469 8.181668-8.643867 12.507361-12.967336l17.599541 0c5.558827 0 10.959035-0.772596 16.210858-2.315742 5.247729-1.542122 10.498528-4.476965 15.749328-8.80248 5.247729-4.318352 10.961082-10.497075 17.134941-18.526959 14.207142-18.525935 24.70567-38.747489 31.498655-60.670801 6.789915-21.922289 11.73371-42.764989 14.818081-62.526055 3.089488-22.850427 4.943795-45.388746 5.558827-67.620074 1.235181-3.089361 2.162335-6.79373 2.782484-11.117199 0.615032-4.324492 1.076562-9.570983 1.38766-15.749706 0.308028-6.173606-0.153502-13.894452-1.38766-23.157419-1.240298-12.347213-3.089488-22.076808-5.558827-29.17753-2.470362-7.100722-5.252846-12.506848-8.336194-16.210193-3.090511-4.324492-6.48598-7.408737-10.191524-9.262968-2.469339-9.877975-5.250799-18.833951-8.336194-26.861788-3.090511-7.408737-6.332478-14.668071-9.728971-21.768793-3.397516-7.100722-7.564589-12.505825-12.507361-16.210193-10.498528-8.643867-19.14275-15.903202-25.936758-21.768793s-11.425682-15.899108-13.895021-30.105668c-1.85533-8.642844-2.469339-17.291828-1.85533-25.936719 0.620149-8.641821 2.935986-17.444301 6.94751-26.400277 4.017665-8.955976 10.498528-17.445324 19.454871-25.474185 8.956343-8.027837 21.46268-15.128559 37.520036-21.303188 14.202025-5.558599 29.793757-10.651594 46.77929-15.283078 16.984509-4.631484 33.349892-9.883091 49.095126-15.749706 15.750351-5.866614 29.798874-13.43294 42.150686-22.696931C829.359186 170.020534 838.007501 157.980313 842.946179 143.157723L842.946179 143.157723zM545.585774 173.728996c1.85533 3.704368 2.008832 7.562233 0.466647 11.57871-1.547302 4.01136-3.862116 7.869225-6.94751 11.57871-3.090511 3.703345-6.794008 7.715729-11.118677 12.040221l-42.614263 0c-4.319552-4.324492-7.716045-8.335852-10.186407-12.040221-2.474456-3.090385-4.477148-6.485715-6.02445-10.191106-1.543209-3.704368-1.388683-7.100722 0.466647-10.190083 4.318529-8.643867 8.028166-16.210193 11.112537-22.696931 3.089488-6.481621 6.48598-11.57871 10.190501-15.283078-1.235181-5.560646-3.089488-13.429871-5.55985-23.619954-2.468316-10.191106-4.784152-20.688181-6.94751-31.493272-2.162335-10.810207-4.012548-20.999266-5.554734-30.570249-1.545256-9.572006-2.315837-16.826224-2.315837-21.769816 0-3.085268 1.388683-6.788613 4.16605-11.113105 2.78146-4.323469 6.020357-8.801457 9.728971-13.43294 3.70452-4.630461 7.563566-8.489348 11.580207-11.57871 4.012548-3.084245 7.562543-4.630461 10.653054-4.630461 3.085395 0 6.794008 1.547239 11.113561 4.630461 4.323646 3.090385 8.493789 6.640234 12.506337 10.651594 4.016641 4.016477 7.414157 8.339946 10.190501 12.972453 2.777367 4.630461 4.170144 8.489348 4.170144 11.57871 0 3.704368-0.927153 10.031471-2.78146 18.987447-1.850213 8.955976-3.859046 18.987447-6.020357 30.105668-2.162335 11.117199-4.478171 21.923312-6.948534 32.42141-2.468316 10.498098-4.63065 18.833951-6.48598 25.01165 3.709637 3.085268 7.260655 7.563256 10.656124 13.428847C536.476952 155.971563 540.647096 163.846928 545.585774 173.728996L545.585774 173.728996zM545.585774 173.728996"  horiz-adv-x="1024" />

    
    <glyph glyph-name="tongxunlu1" unicode="&#59036;" d="M154.1994 17.642152l-0.074374 0c-25.463497 0-46.120316 6.351531-63.1785 19.422212C71.929121 51.639523 61.433901 71.759787 60.593476 95.243876l-0.138123 3.446699c-0.51318 13.043057-1.096484 27.831775 3.581634 43.148548 9.545358 31.106351 30.499673 53.989074 62.279639 68.063803 45.761196 20.266887 91.733827 40.074781 137.69477 59.869925l4.74293 2.04422c5.898913 2.545712 11.921073 4.819429 17.943234 7.079333 6.330281 2.401214 12.6595 4.760992 18.798534 7.552138 6.636277 3.03233 8.294814 4.304124 8.697496 4.718493-0.101998 0 0.877612 2.746522 0.51318 13.559424-0.168935 4.775867-1.988971 9.868354-5.55573 15.588769l-7.659449 12.256818c-12.95062 20.696131-26.341109 42.090313-38.679739 63.843616-13.023932 22.954972-22.797724 47.941414-29.031319 74.284648-4.889552 20.609007-6.044473 43.063549-3.529573 68.649232 2.893145 29.390439 10.225348 57.45171 21.794739 83.423075 24.595448 55.148245 59.545867 92.647563 106.857228 114.657987 60.276856 28.032584 121.927504 23.213156 179.033907-14.042854 30.792918-20.094764 55.045184-47.724667 74.142275-84.48131 21.72249-41.861879 32.02965-86.984522 30.639921-134.108886-0.921174-31.736404-12.062384-59.852925-21.664054-80.819989-11.592766-25.31475-26.379359-48.484343-40.522086-70.051711-2.485151-3.776069-5.035113-7.521326-7.5872-11.255958-5.831976-8.56681-11.351582-16.648066-15.817203-24.956692-5.086112-9.467797-6.92846-18.764534-5.467544-27.689402 9.050241-7.336454 20.873565-12.212194 32.235772-16.560942 19.87908-7.650949 39.788972-15.215837 59.698865-22.767975 33.081509-12.572376 66.168331-25.14369 99.109593-38.058186 36.465522-14.286163 60.066484-40.97258 68.266737-77.158668 4.093752-17.992108 4.093752-36.868203-0.02975-54.561753-5.188111-22.125172-20.741817-50.571062-65.442654-60.596664-7.807134-1.744599-16.373945-2.545712-27.000912-2.558462-59.128311-0.072249-118.273621-0.100936-177.411494-0.100936l-258.496041 0.026562L154.1994 17.642152zM436.678898 705.35314c-18.327853 0-37.215636-4.560182-56.139542-13.570049-35.624034-16.924311-62.301951-46.633496-81.583915-90.810528-9.282925-21.288997-15.185025-44.416091-17.520365-68.736356-1.985783-20.671693-1.199545-37.666129 2.477713-53.496082 5.079737-21.933925 13.009057-42.703367 23.562713-61.705897 11.394081-20.544195 24.011081-41.14789 36.205213-61.060969l7.382141-12.068759c7.39489-12.111258 11.198584-23.981332 11.619328-36.304024 1.066734-31.885152-7.129269-46.100129-33.749812-58.491882-6.777587-3.143891-13.753859-5.838351-20.735442-8.532811-5.142424-1.992158-10.293347-3.957754-15.338023-6.175158l-4.553807-2.007033c-43.980473-19.380775-87.990695-38.746675-131.789483-58.575819-18.916469-8.546623-30.774856-21.597117-36.268962-39.868659-2.434151-8.154567-2.055907-17.936859-1.647913-28.319455l0.132811-3.508323c0.365495-10.371971 4.384872-18.217355 12.652062-24.686821 8.602935-6.734025 19.422212-9.878978 34.058995-9.878978l0-21.554618 0.042499 21.554618 123.284297 0.042499 248.161257-0.027625c56.757908 0 113.510504 0.027625 170.269475 0.097749 6.912522 0.015937 12.117633 0.464306 16.369695 1.432229 22.637289 5.178548 28.13777 17.17612 30.396612 27.043411 2.5404 11.12846 2.534025 23.098407-0.027625 34.57855-4.785429 21.583305-17.695675 36.318899-39.490414 45.047207-31.476096 12.615938-63.093502 24.896131-94.71197 37.160386-19.162966 7.438452-38.333369 14.875842-57.467648 22.397168-13.915356 5.460107-29.917431 12.266381-43.748851 24.081205-6.870023 5.867038-11.922136 14.455098-13.562611 22.959222-3.607134 18.693348-0.420744 38.270682 9.219176 56.583661 5.340046 10.145662 11.515204 19.393525 17.486366 28.348142 2.301341 3.452011 4.617557 6.904023 6.856211 10.412346 12.699874 19.787707 25.92674 40.949205 35.848218 63.080752 7.577638 16.911562 16.362257 39.350166 17.036935 62.898005 1.129421 38.97086-7.200456 76.257681-24.755883 110.822419-14.889654 29.287378-33.420442 51.05343-56.666535 66.560388C485.824107 697.184761 461.165973 705.35314 436.678898 705.35314zM835.760729 509.203674c32.263396 0 64.533168 0.069061 96.795502-0.056312 4.393372-0.014875 8.93868-0.322995 13.150367-1.473666 11.057274-3.017455 16.853125-11.704326 16.502505-23.759273-0.35062-11.47908-7.318391-19.941767-18.971719-22.481104-4.014065-0.857425-8.197066-1.206982-12.309942-1.206982-64.096487-0.070124-128.180224-0.098811-192.272461 0.042499-4.960739 0.013812-10.14035 0.505742-14.812093 2.020845-11.408956 3.676195-16.51738 12.461878-15.633393 25.205314 0.694865 10.369846 8.000506 18.52335 18.847408 20.628132 3.886567 0.757551 7.921883 1.025297 11.884949 1.03911C771.213749 509.244049 803.490958 509.203674 835.760729 509.203674zM856.30705 346.82102c-25.140502 0-50.295879-0.251809-75.428944 0.169997-6.195346 0.098811-12.78381 1.346168-18.412852 3.816443-9.613357 4.266937-13.5148 14.650595-11.352644 26.383609 1.775411 9.598483 9.774855 16.670378 20.90969 18.241792 3.212952 0.449431 6.476904 0.674677 9.717481 0.674677 50.311816 0.041437 100.592821 0.084999 150.903574-0.043562 4.813054-0.01275 9.822667-0.519555 14.411536-1.878472 9.851354-2.904832 15.465521-11.914698 15.156338-22.999596-0.294308-11.536454-6.012598-19.732457-16.432381-22.595852-4.35831-1.208045-9.031116-1.670225-13.577486-1.711662C906.905737 346.737084 881.603737 346.82102 856.30705 346.82102zM892.022457 240.195414c-6.802024 0-34.037745-0.059499-61.272404 0.026562-7.846446 0.028687-15.493145 1.264356-21.528056 6.751025-7.859196 7.171769-9.220238 16.265571-6.246345 26.032989 3.087579 10.201974 11.122085 14.410474 20.953252 15.885202 3.058892 0.449431 6.202783 0.548242 9.2893 0.548242 32.853075 0.041437 65.705088 0.126436 98.558163-0.070124 5.381483-0.027625 10.995649-0.757551 16.090261-2.412902 9.470985-3.115204 14.242601-10.988212 14.355225-21.681053 0.112623-10.553656-4.629244-18.847408-13.808045-22.116672-5.037238-1.782849-10.63653-2.708272-16.0042-2.819833C915.540546 239.970167 908.89152 240.195414 892.022457 240.195414z"  horiz-adv-x="1025" />

    
    <glyph glyph-name="wechat" unicode="&#58938;" d="M832.16384492 557.00523779c5.53660576 0 10.99098545-0.05481826 16.47277383-0.35631651C819.77500302 713.75697393 657.51406982 834 461.62236552 834 245.36581807 834 70.08563779 687.38957286 70.08563779 506.54537724c0-106.04519472 60.24485302-200.30454404 153.68193458-260.13826318 1.20599385-0.76745039 3.59057109-2.27494248 3.59057109-2.27494248l-37.82433955-118.488854 141.53977353 72.08551582c0 0 4.44024844-1.26081123 6.66037266-1.91862598 38.89328818-10.85394112 80.5822875-16.69204511 123.88841542-16.69204511 8.8256795 0 17.62394941 0.32890693 26.3125837 0.79485907-8.03081953 24.91472812-12.44365928 51.09026661-12.44365928 78.11548331C475.49128994 423.16737685 635.23060068 557.00523779 832.16384492 557.00523779zM597.89962198 672.53392588c30.34169824 0 54.95492724-23.81836992 54.95492724-53.20075518 0-29.38238526-24.58582031-53.25557344-54.95492725-53.25557343-30.39651562 0-54.98233682 23.87318818-54.98233681 53.25557343C542.91728604 648.74296464 567.47569766 672.53392588 597.89962198 672.53392588zM325.37251778 566.07759815c-30.36910693 0-54.98233682 23.87318818-54.98233682 53.25557343 0 29.40979394 24.58582031 53.20075518 54.98233682 53.20075517s55.0371542-23.81836992 55.03715419-53.20075517C380.40967197 589.95078545 355.76903428 566.07759815 325.37251778 566.07759815zM504.2980874 256.10987959c0-152.80484854 148.14532793-276.6658544 330.82592257-276.66585439 36.56352744 0 71.78401758 4.98842753 104.61992958 14.17042265 1.89121729 0.52076953 5.64624229 1.61712773 5.64624228 1.61712773l119.53039307-60.95748603-31.95882597 100.15227158c0 0 2.02826162 1.26081123 3.01498329 1.91862598 78.93775107 50.54208838 129.83615508 130.16506289 129.83615508 219.79230117 0 152.75003027-148.09051055 276.61103701-330.71628691 276.61103701C652.44341533 532.72091572 504.2980874 408.85990987 504.2980874 256.10987959zM903.7559999 351.41076884999995c0 24.77768291 20.77597792 44.92325479 46.40333819 44.92325479 25.70958721 0 46.45815557-20.11816318 46.45815556-44.92325479 0-24.88731855-20.77597792-45.0603-46.45815556-45.0603C924.53197695 306.37787753 903.7559999 326.52345029 903.7559999 351.41076884999995zM673.54830107 351.41076884999995c0 24.77768291 20.83079531 44.92325479 46.45815557 44.92325479 25.68217852 0 46.45815557-20.11816318 46.45815557-44.92325479 0-24.88731855-20.80338662-45.0603-46.45815557-45.0603C694.35168682 306.37787753 673.54830107 326.52345029 673.54830107 351.41076884999995z"  horiz-adv-x="1256" />

    
    <glyph glyph-name="wooff2x" unicode="&#58906;" d="M512 896C396.486845 896 251.099215 799.189333 251.099215 614.293333 251.099215 439.893333 360.601857 368.362667 376.385019 332.586667 392.14592 296.832 374.848999 236.885333 297.535993 209.066667 158.648622 159.104 11.190704 90.133333 0.037863-103.850667-0.719016-116.885333 9.96634-128 23.590169-128L512-128 1000.40983-128C1014.03366-128 1024.719014-116.885333 1023.962138-103.850667 1012.809297 90.133333 865.351377 159.104 726.464009 209.066667 649.151002 236.885333 631.85408 296.832 647.61498 332.586667 663.398144 368.362667 772.900783 439.893333 772.900783 614.293333 772.900783 799.189333 627.513156 896 512 896M512 853.333333C561.419772 853.333333 614.779772 831.104 654.738551 793.898667 688.330641 762.581333 728.378466 706.026667 728.378466 614.293333 728.378466 497.216 674.083499 434.346667 638.153988 392.746667 624.062673 376.448 612.954355 363.584 606.609924 349.205333 594.121417 320.896 594.922816 286.954667 608.769259 256.042667 626.088439 217.429333 662.329609 186.56 710.814413 169.109333 835.922125 124.117333 958.915029 67.221333 977.636663-85.333333L512-85.333333 46.363335-85.333333C65.08497 67.221333 188.077874 124.117333 313.185588 169.109333 361.670393 186.56 397.91156 217.429333 415.230741 256.042667 429.077184 286.954667 429.878583 320.896 417.390074 349.205333 411.045644 363.584 399.937325 376.448 385.846011 392.746667 349.9165 434.346667 295.621533 497.216 295.621533 614.293333 295.621533 706.026667 335.669359 762.581333 369.261448 793.898667 409.220228 831.104 462.580228 853.333333 512 853.333333"  horiz-adv-x="1024" />

    
    <glyph glyph-name="woon2x" unicode="&#58909;" d="M726.464009 209.066667C649.151002 236.885333 631.85408 296.853333 647.61498 332.608 663.398144 368.362667 772.900783 439.893333 772.900783 614.293333 772.900783 799.189333 627.513156 896 512 896 396.486845 896 251.099215 799.189333 251.099215 614.293333 251.099215 439.893333 360.601857 368.362667 376.385019 332.608 392.14592 296.853333 374.848999 236.885333 297.535993 209.066667 158.648622 159.104 11.190704 90.133333 0.037863-103.850667-0.719016-116.864 9.96634-128 23.590169-128L512-128 1000.40983-128C1014.03366-128 1024.719014-116.864 1023.962138-103.850667 1012.809297 90.133333 865.351377 159.104 726.464009 209.066667"  horiz-adv-x="1024" />

    
    <glyph glyph-name="qingkong" unicode="&#59443;" d="M511.999488 831.995267c-247.361761 0-447.88782-200.527083-447.88782-447.888843s200.526059-447.888843 447.88782-447.888843c247.362784 0 447.888843 200.527083 447.888843 447.888843S759.361249 831.995267 511.999488 831.995267L511.999488 831.995267zM728.448192 221.800851l-54.143131-54.138014-162.305573 162.306596-162.306596-162.306596-54.141084 54.138014 162.305573 162.305573-162.305573 162.306596 54.101175 54.143131 162.336272-162.321946 162.315806 162.321946 54.143131-54.143131-162.321946-162.316829L728.448192 221.800851 728.448192 221.800851zM728.448192 221.800851"  horiz-adv-x="1024" />

    
    <glyph glyph-name="yonghuming" unicode="&#58919;" d="M337.10136523 429.39056942c-66.65850312 33.06396074-111.19052228 106.03069582-111.19052227 191.94141688 0 116.74235861 85.71890526 211.38123083 191.45745303 211.38123084 105.74087356 0 191.45977881-94.63770989 191.45977882-211.38123084 0-85.6642353-44.40528305-158.5123796-110.75566675-191.71585969 164.11967669-39.44352143 288.4070318-196.69208044 296.54255407-387.49291904l-754.20614142-0.54761651C50.83140658 229.88715752999997 174.4536872 389.21224223 337.10136523 429.39056942zM576.54061679 808.25183945c44.10297749-47.19386802 71.51284271-113.2892343 71.51284271-186.45478525 0-67.58241831-23.38803106-129.13407768-61.71347301-175.32921254l0.00581387-0.00116231c119.32953379-56.67077731 209.53768505-173.83169624 238.94509611-316.52132338l0 0.0069762 170.53437968 0.12207999c-7.23093025 169.57400537-117.69126765 309.32905646-263.55397828 344.38583082 58.96830067 29.5073581 98.43320402 94.25286596 98.43320403 170.385547 0 103.75419195-76.18230973 187.86510251-170.15998527 187.86510252-31.31077714 0-60.64842511-9.33738882-85.85029177-25.62753383"  horiz-adv-x="1024" />

    
    <glyph glyph-name="woman" unicode="&#58942;" d="M613.312 269.504v11.2h151.296v297.216c0 124.736-113.152 225.856-252.608 225.856s-252.608-101.12-252.608-225.856v-297.216h151.36v-11.072h-0.256l-294.848-193.792v-107.136h792.832v105.92l-295.168 194.88zM620.992 82.752c-72.192-69.824-109.504 36.416-109.504 36.416s-37.312-106.24-109.568-36.416c0 0-31.744 20.544-35.136 158.208l144.704-121.728 144.704 121.728c-3.392-137.6-35.2-158.208-35.2-158.208z"  horiz-adv-x="1025" />

    
    <glyph glyph-name="sousuo" unicode="&#58882;" d="M1018.096184-122.048186a20.287366 20.287366 0 0 0-28.671104 0l-269.43158 269.43158a428.338614 428.338614 0 0 0-289.462954-112.380488A430.514546 430.514546 0 1 0 430.530546 895.968001a430.514546 430.514546 0 0 0 430.578544-430.450548c0-111.67651-42.87866-212.985344-112.508484-289.462955l269.43158-269.559576a20.15937 20.15937 0 0 0 0-28.543108z m-197.945814 587.629637a389.491828 389.491828 0 1 1-779.047654 0 389.491828 389.491828 0 0 1 779.047654 0z"  horiz-adv-x="1024" />

    
    <glyph glyph-name="faxian" unicode="&#58880;" d="M511.881 873.368c-270.647 0-490.05-219.403-490.05-490.051 0-270.647 219.403-490.051 490.05-490.051 270.647 0 490.05 219.403 490.05 490.051S782.529 873.368 511.881 873.368z m47.702-527.742L236.218 130.732 453.159 445.91l319.272 204.661-212.848-304.945zM469.532 392.698a36 36 0 1 1 73.678 0 36 36 0 1 1-73.678 0z"  horiz-adv-x="1024" />

    
    <glyph glyph-name="jia" unicode="&#58908;" d="M819.2 409.6H537.6V691.2h-51.2v-281.6H204.8v-51.2h281.6v-281.6h51.2V358.4h281.6z"  horiz-adv-x="1024" />

    
    <glyph glyph-name="zhinanzhen1" unicode="&#58881;" d="M511.999-66.255c-60.773 0-119.74 11.908-175.263 35.393-53.618 22.679-101.768 55.142-143.112 96.485-41.345 41.345-73.807 89.495-96.487 143.113-23.485 55.523-35.392 114.49-35.392 175.263 0 60.773 11.908 119.74 35.392 175.263 22.68 53.618 55.142 101.768 96.487 143.112s89.494 73.807 143.112 96.487c55.523 23.485 114.49 35.392 175.263 35.392 60.774 0 119.741-11.908 175.263-35.392 53.617-22.68 101.768-55.142 143.113-96.487 41.344-41.345 73.807-89.494 96.485-143.112 23.485-55.523 35.393-114.49 35.393-175.263 0-60.774-11.908-119.741-35.393-175.263-22.679-53.617-55.142-101.768-96.485-143.113-41.345-41.344-89.495-73.807-143.113-96.485-55.522-23.485-114.489-35.393-175.263-35.393zM511.999 793.322c-55.266 0-108.868-10.819-159.318-32.159-48.739-20.616-92.516-50.133-130.114-87.731s-67.116-81.375-87.731-130.114c-21.34-50.45-32.159-104.052-32.159-159.318s10.819-108.868 32.159-159.316c20.616-48.74 50.133-92.516 87.731-130.114 37.598-37.599 81.375-67.117 130.114-87.731 50.45-21.34 104.052-32.159 159.318-32.159s108.868 10.819 159.316 32.159c48.74 20.616 92.516 50.132 130.114 87.731 37.599 37.598 67.117 81.374 87.731 130.114 21.34 50.45 32.159 104.052 32.159 159.316s-10.819 108.868-32.159 159.318c-20.616 48.739-50.132 92.516-87.731 130.114-37.598 37.598-81.374 67.116-130.114 87.731-50.449 21.34-104.051 32.159-159.316 32.159zM754.585 626.576c-3.411 3.41-8.737 3.976-12.787 1.361l-286.006-184.684c-1.219-0.788-2.257-1.826-3.045-3.045l-184.694-285.986c-2.617-4.050-2.050-9.378 1.36-12.787 1.976-1.976 4.597-2.997 7.24-2.997 1.917 0 3.845 0.536 5.547 1.637l285.996 184.685c1.219 0.788 2.257 1.825 3.045 3.044l184.705 285.986c2.617 4.049 2.050 9.377-1.36 12.786zM511.999 341.149c-23.628 0-42.851 19.223-42.851 42.851s19.223 42.851 42.851 42.851 42.851-19.223 42.851-42.851-19.223-42.851-42.851-42.851z"  horiz-adv-x="1024" />

    
    <glyph glyph-name="icon" unicode="&#58936;" d="M815.663044 114.06922099999997c-44.225247 92.710518-362.246301 85.757153-241.070474 226.907916 39.671535 46.6249 81.499176 109.61042 81.499176 177.099511 0 121.955586-81.158415 221.082234-180.976818 221.082234-99.722212 0-181.076078-99.126648-181.076078-221.082234 0-67.490114 25.568329-112.74276 76.650751-175.924755C454.934307 217.800747 179.477674 208.69229900000005 137.846508 119.99314100000004c-12.341073-26.348088-14.499226-46.774303-14.304797-70.328765 0-3.038196-0.289596-6.170536 1.226944-8.667404 1.517563-2.451842 3.869121-3.968381 6.418176-3.968381l686.876889 0c2.449795 0 4.848425 1.517563 6.317892 3.968381 1.517563 2.496867 1.224898 5.582135 1.224898 8.667404C826.098721 76.01348700000005 822.569338 99.62116100000003 815.663044 114.06922099999997zM937.190889 404.581758l-91.044576 0 0 91.033319c0 12.592806-10.223852 22.772656-22.760376 22.772656-12.570293 0-22.760376-10.17985-22.760376-22.772656l0-91.033319-91.045599 0c-12.580526 0-22.772656-10.17985-22.772656-22.782889 0-12.536524 10.19213-22.762423 22.772656-22.762423l91.045599 0 0-91.044576c0-12.558014 10.190083-22.738887 22.760376-22.738887 12.536524 0 22.760376 10.17985 22.760376 22.738887l0 91.044576 91.044576 0c12.580526 0 22.760376 10.224876 22.760376 22.762423C959.952288 394.400884 949.771415 404.581758 937.190889 404.581758z"  horiz-adv-x="1024" />

    
    <glyph glyph-name="woon2x-copy" unicode="&#59444;" d="M639.9748506 279.61387357C593.84067375 296.21381333 583.51926356 331.99788672 592.92409952 353.33339279999996 602.34222083 374.66889888000003 667.68457796 417.35264026 667.68457796 521.42051649 667.68457796 631.75156034 580.92894968 689.5203706 512 689.5203706 443.07105093 689.5203706 356.31542085 631.75156034 356.31542085 521.42051649 356.31542085 417.35264026 421.65777976 374.66889888000003 431.07589988 353.33339279999996 440.48073644 331.99788672 430.15932685 296.21381333 384.02515059 279.61387357 301.14835164 249.80017722000002 213.15734039 208.64403708999998 206.50222299 92.89000668000006 206.05057854 85.12469746 212.42673856 78.47962940000002 220.55634262 78.47962940000002L512 78.47962940000002 803.44365677 78.47962940000002C811.57326144 78.47962940000002 817.94942025 85.12469746 817.4977776 92.89000668000006 810.84266021 208.64403708999998 722.85164775 249.80017722000002 639.9748506 279.61387357"  horiz-adv-x="1024" />

    


  </font>
</defs>
</svg>
